# xmcd
#
# Track frame offsets: 
#        150
#        19411
#        40633
#        62392
#        84053
#        106085
#        129082
#        147755
#        174293
#        196473
#        216833
#        238167
#
# Disc length: 3644 seconds
#
# Revision: 0
# Processed by: cddbd v1.5.2PL0 Copyright (c) Steve Scherf et al.
# Submitted via: ExactAudioCopy v1.3
#
DISCID=910e3a0c
DTITLE=Chuck Alvarez Band - Sacred Grounds
DYEAR=1998
DGENRE=Electric Blues
TTITLE0=Stranger In My Hometown
TTITLE1=Big Boss Man
TTITLE2=Me and My Woman
TTITLE3=Light Rain
TTITLE4=Life Rolls On
TTITLE5=Slippery When Wet
TTITLE6=Long Way From Heaven
TTITLE7=Worried Life Blues
TTITLE8=My Life
TTITLE9=Balder I Go
TTITLE10=Tight Rope
TTITLE11=Little Wing
EXTD=
EXTT0=
EXTT1=
EXTT2=
EXTT3=
EXTT4=
EXTT5=
EXTT6=
EXTT7=
EXTT8=
EXTT9=
EXTT10=
EXTT11=
PLAYORDER=
